# xmcd
#
# Track frame offsets:
#	150
#	14734
#	29519
#	44080
#	57765
#	72155
#	85606
#	100496
#	112814
#	125445
#	140010
#	151447
#	162669
#	177710
#	189888
#	203553
#	216569
#	231142
#
# Disc length: 3269 seconds
#
# Revision: 0
# Processed by: cddbd v1.5.2PL0 Copyright (c) Steve Scherf et al.
# Submitted via: audiograbber 1.83.01
#
DISCID=0a0cc312
DTITLE=Ella Fitzgerald - Masters of Music - CD 6
DYEAR=2005
DGENRE=Oldies
TTITLE0=All my life
TTITLE1=Deep in the heart of the south
TTITLE2=I fell in love with a dream
TTITLE3=Wishful thinking
TTITLE4=You're gonna lose your gal
TTITLE5=It's wonderful
TTITLE6=Stairway to the stars
TTITLE7=Cabin in the sky
TTITLE8=Shake down the stars
TTITLE9=If you ever should leave
TTITLE10=Love that boy
TTITLE11=Vote for Mr. Rhythm
TTITLE12=I'm just a Jitterburg
TTITLE13=My last affair
TTITLE14=Gulf Coast Blues
TTITLE15=Organ Grinder's Swing
TTITLE16=The frim fram sauce
TTITLE17=This time it's real
EXTD=
EXTT0=
EXTT1=
EXTT2=
EXTT3=
EXTT4=
EXTT5=
EXTT6=
EXTT7=
EXTT8=
EXTT9=
EXTT10=
EXTT11=
EXTT12=
EXTT13=
EXTT14=
EXTT15=
EXTT16=
EXTT17=
PLAYORDER=
